<svg width="18" height="22" viewBox="0 0 18 22" fill="none" xmlns="http://www.w3.org/2000/svg">
<path d="M15.5752 16.8165L12.5729 14.9867C12.4464 14.9043 12.2959 14.8575 12.1368 14.8512C11.9777 14.8448 11.8157 14.8791 11.6676 14.9505L10.4521 15.5754C10.2997 15.6516 10.1312 15.6858 9.96726 15.6739C9.80329 15.662 9.65098 15.6044 9.52903 15.5083C7.38964 13.8647 6.01806 11.489 5.66434 8.81443C5.64206 8.66075 5.66837 8.50008 5.74004 8.35212C5.8117 8.20416 5.9256 8.07534 6.06778 7.98146L7.18517 7.18667C7.32326 7.09688 7.43689 6.97584 7.51432 6.83603C7.59175 6.69623 7.63017 6.54273 7.62563 6.39137L7.54214 2.87638L7.52771 1.97572C7.52354 1.8462 7.48835 1.72195 7.42477 1.61224C7.32292 1.43413 7.15076 1.30484 6.94206 1.2497C6.36682 1.09161 5.74724 1.07 5.13481 1.18668C4.52238 1.30337 3.93477 1.55497 3.42081 1.92058L3.16944 2.1069L3.0392 2.20407C2.9787 2.24679 2.92038 2.29237 2.8645 2.34063L2.70271 2.48897C0.565661 4.47799 0.725045 9.23026 3.13905 13.848L3.87929 15.1301C6.66776 19.5233 10.7036 22.0375 13.5052 21.2206L13.7145 21.1546C13.7839 21.1305 13.8521 21.103 13.919 21.0723L14.0689 21.0091L14.3559 20.8845C14.9293 20.622 15.4406 20.2388 15.8476 19.7667C16.2546 19.2946 16.5453 18.7473 16.6958 18.1701C16.7524 17.9618 16.7265 17.7481 16.6232 17.5708C16.56 17.4609 16.47 17.3683 16.3599 17.2999L15.5752 16.8165Z" stroke="#00445B" stroke-width="1.06794" stroke-miterlimit="10"/>
</svg>
