<svg width="11" height="16" viewBox="0 0 11 16" fill="none" xmlns="http://www.w3.org/2000/svg">
<path d="M6.83563 15.4994H3.86691C3.67007 15.4994 3.4813 15.4204 3.34211 15.2798C3.20292 15.1391 3.12473 14.9484 3.12473 14.7495V10.0997H1.64037C1.44353 10.0997 1.25476 10.0207 1.11557 9.88006C0.976387 9.73942 0.898193 9.54866 0.898193 9.34976V6.6499C0.898193 6.45099 0.976387 6.26024 1.11557 6.11959C1.25476 5.97895 1.44353 5.89993 1.64037 5.89993H3.12473V4.625C3.17675 3.48232 3.6744 2.40694 4.50887 1.63399C5.34334 0.861042 6.44674 0.453404 7.57781 0.50021H9.80434C10.0012 0.50021 10.19 0.579223 10.3291 0.719868C10.4683 0.860514 10.5465 1.05127 10.5465 1.25017V3.95003C10.5465 4.14894 10.4683 4.33969 10.3291 4.48034C10.19 4.62098 10.0012 4.7 9.80434 4.7H7.57781V5.89993H9.80434C9.91894 5.89906 10.0322 5.92501 10.1352 5.97575C10.2382 6.0265 10.3282 6.10066 10.3981 6.19242C10.4672 6.28556 10.5139 6.39369 10.5345 6.50824C10.5552 6.62279 10.5491 6.74061 10.5168 6.85239L9.77466 9.55225C9.72976 9.71447 9.63213 9.85669 9.4975 9.956C9.36286 10.0553 9.19906 10.1059 9.03248 10.0997H7.57781V14.7495C7.57781 14.9484 7.49961 15.1391 7.36043 15.2798C7.22124 15.4204 7.03246 15.4994 6.83563 15.4994ZM4.60909 13.9995H6.09345V9.34976C6.09345 9.25127 6.11264 9.15375 6.14994 9.06276C6.18724 8.97177 6.24191 8.8891 6.31083 8.81946C6.37974 8.74981 6.46156 8.69457 6.55161 8.65688C6.64165 8.61919 6.73816 8.5998 6.83563 8.5998H8.49811L8.82467 7.39986H6.83563C6.73816 7.39986 6.64165 7.38046 6.55161 7.34277C6.46156 7.30508 6.37974 7.24984 6.31083 7.1802C6.24191 7.11056 6.18724 7.02788 6.14994 6.93689C6.11264 6.8459 6.09345 6.74838 6.09345 6.6499V4.625C6.1125 4.24034 6.27727 3.87782 6.5536 3.61255C6.82993 3.34728 7.19666 3.19959 7.57781 3.20007H9.06216V2.00013H7.57781C6.84068 1.95475 6.11558 2.2049 5.55981 2.6963C5.00403 3.18769 4.66242 3.88071 4.60909 4.625V6.6499C4.60909 6.8488 4.5309 7.03955 4.39171 7.1802C4.25252 7.32084 4.06375 7.39986 3.86691 7.39986H2.38255V8.5998H3.86691C4.06375 8.5998 4.25252 8.67881 4.39171 8.81946C4.5309 8.9601 4.60909 9.15086 4.60909 9.34976V13.9995Z" fill="#00445B"/>
</svg>
