<svg width="32" height="35" viewBox="0 0 32 35" fill="none" xmlns="http://www.w3.org/2000/svg">
<path d="M27.3629 22.5553C27.3339 22.4321 27.3086 22.3052 27.2686 22.1927V22.1929C27.1137 21.6878 26.8502 21.2226 26.4965 20.8299C25.967 20.2441 25.2583 19.8501 24.4814 19.7101C24.5393 19.0757 24.5936 18.3435 24.6409 17.5351L24.7279 15.8062L24.764 14.871C24.7754 14.6778 24.7754 14.4842 24.764 14.291L24.7205 13.9719L24.648 13.6566V13.6569C24.4578 12.9864 24.0783 12.3849 23.5549 11.9247C23.0316 11.4643 22.3868 11.1647 21.6976 11.0615C21.2941 11.0201 20.8888 11.0019 20.4832 11.0072C19.0335 10.9854 17.5039 10.9745 15.9924 10.9745C14.4809 10.9745 12.9657 10.9745 11.5015 11.0036H11.5012C11.096 10.9988 10.6904 11.017 10.2871 11.058C9.59636 11.1589 8.94936 11.457 8.42399 11.9169C7.89884 12.3766 7.5173 12.9783 7.32565 13.6496C7.26927 13.8585 7.23033 14.0721 7.20985 14.2875C7.19797 14.4807 7.19797 14.6744 7.20985 14.8675L7.24601 15.8027L7.33298 17.5316C7.37647 18.2856 7.42729 18.9814 7.47786 19.5687C6.9593 19.6583 6.46548 19.856 6.02813 20.1485C5.08507 20.7758 4.47089 21.7912 4.35361 22.9178V23.3165V27.2673C4.35361 27.3834 4.35361 27.5282 4.37535 27.6587C4.3971 27.7892 4.4153 27.9234 4.43704 28.0539C4.66434 29.0933 5.32346 29.9871 6.24937 30.5115C6.69486 30.7656 7.18867 30.9236 7.6991 30.9754C7.82602 30.9754 7.94915 30.9754 8.06167 30.9936H8.93851L11.0843 30.961C10.1094 31.9359 9.14149 33.4982 9.08718 34.3791L9.08744 34.3789C9.21133 34.5083 9.34988 34.6226 9.50057 34.7197C9.62041 34.8175 9.75188 34.9002 9.89196 34.9662C10.9794 34.5384 12.7083 32.2295 12.9475 30.932C15.1585 30.892 17.2065 30.8415 19.0223 30.7833C19.1384 32.0412 20.9507 34.5167 22.089 34.9627C22.2495 34.8838 22.4005 34.7864 22.5383 34.6727C22.671 34.5887 22.7929 34.4891 22.9008 34.3753C22.8429 33.4112 21.7047 31.6641 20.6536 30.7216C21.7046 30.6817 22.6543 30.642 23.4952 30.5947V30.5949C23.7377 30.5406 23.8962 30.3075 23.8578 30.062C23.8676 29.8392 23.7139 29.6425 23.4952 29.598C20.1353 29.4167 14.9481 29.2863 8.94224 29.2028H7.90915V29.2031C7.65252 29.1697 7.40575 29.0832 7.18428 28.9492C6.73044 28.6762 6.41236 28.2251 6.30718 27.706L6.2819 27.5103V23.1135C6.34258 22.576 6.64042 22.0938 7.09375 21.7988C7.54709 21.5037 8.10866 21.4266 8.62465 21.5884C9.14065 21.7503 9.55761 22.1341 9.76137 22.6352C9.81118 22.7586 9.84506 22.8875 9.86275 23.0192C9.885 23.1765 9.89335 23.3355 9.88829 23.4941V24.7411C9.88702 25.0098 9.99549 25.2677 10.1882 25.4548C10.3811 25.6422 10.6417 25.743 10.9105 25.7342C14.43 25.7342 17.8478 25.7051 21.0595 25.669H21.0813H21.081C21.328 25.669 21.5647 25.5693 21.7374 25.3926C21.9101 25.2161 22.0041 24.9772 21.9981 24.7302V23.2805C21.9912 22.7596 22.1945 22.2583 22.5621 21.8891C22.9295 21.5202 23.4301 21.3149 23.9507 21.3195C24.4715 21.324 24.9684 21.5384 25.3292 21.9139C25.5337 22.1197 25.6917 22.367 25.7931 22.6388L25.8548 22.8453L25.8948 23.0554V23.57L25.9527 25.8063L25.9853 26.8538V27.3395V27.34C25.9855 27.4614 25.9772 27.5825 25.96 27.7026C25.8788 28.1797 25.6462 28.6181 25.2965 28.9528C24.9792 29.2562 24.5818 29.4626 24.1512 29.5475C23.9406 29.6408 23.8177 29.8631 23.8503 30.0911C23.8493 30.2039 23.8943 30.3121 23.9753 30.391C24.0559 30.4696 24.1654 30.5118 24.2781 30.508C24.9178 30.4522 25.5269 30.2087 26.0288 29.8084C26.6151 29.3505 27.034 28.7123 27.2214 27.9923C27.2654 27.7956 27.2932 27.5956 27.3046 27.3943C27.3046 27.1913 27.3046 27.0317 27.3264 26.8687L27.359 25.8211L27.4169 23.5848V22.9287C27.3989 22.8164 27.3807 22.6895 27.3628 22.5552L27.3629 22.5553ZM21.8499 20.2175C21.3406 20.5467 20.9192 20.9945 20.6211 21.5224C20.3228 22.0685 20.1632 22.6797 20.1571 23.3021V23.8022C17.5074 23.7769 14.7419 23.7587 11.904 23.7514V23.494C11.91 23.2371 11.8954 22.9803 11.8605 22.7257C11.8208 22.445 11.7477 22.1699 11.6428 21.9065C11.2258 20.8312 10.3432 20.0032 9.24338 19.6558C9.03631 19.5923 8.82418 19.5476 8.60902 19.5215C8.66211 18.9271 8.7104 18.2566 8.75389 17.51L8.84087 15.7811L8.87703 14.8459H8.87728C8.88006 14.7184 8.89093 14.5913 8.9099 14.4651C8.92962 14.3546 8.95743 14.2454 8.99333 14.1389C9.15338 13.7076 9.46538 13.3493 9.87043 13.1314C10.081 13.0212 10.3114 12.9534 10.5483 12.9319C10.7296 12.9102 11.1536 12.9319 11.5088 12.9319C12.9586 12.9537 14.4882 12.961 15.9997 12.961C17.5112 12.961 19.0264 12.961 20.4906 12.9284C20.8532 12.9284 21.2698 12.9066 21.4511 12.9284H21.4514C21.685 12.9534 21.9115 13.0235 22.1184 13.1349C22.5272 13.3562 22.8407 13.72 22.999 14.1572L23.0498 14.3202L23.0824 14.4869C23.1011 14.6143 23.112 14.7425 23.115 14.8712L23.1512 15.8064L23.2346 17.5317C23.2816 18.3291 23.3325 19.0467 23.3904 19.6702C22.8427 19.7359 22.3166 19.923 21.8501 20.2176L21.8499 20.2175Z" fill="#1B1A1A"/>
<path d="M25.3836 7.50968C25.4307 5.55599 25.4706 3.41751 25.4959 0.985309H25.4961C25.4989 0.739046 25.4039 0.501884 25.2319 0.325882C25.06 0.149879 24.8251 0.0492823 24.5791 0.0464991H24.5609L20.9036 0.0100908C20.6473 0.0083209 20.4007 0.108442 20.2184 0.288716C20.0361 0.468991 19.9332 0.714489 19.9322 0.970862V2.8593L16.6011 0.216935C16.4272 0.0766095 16.2102 0 15.9867 0C15.7632 0 15.5463 0.0766095 15.3723 0.216935C9.23224 5.23701 3.49449 10.087 0.511272 12.867C0.384351 12.9866 0.431627 13.2584 0.616451 13.4649C0.801276 13.6715 1.00784 13.7296 1.13476 13.6389C4.35358 11.377 10.0152 7.00576 15.9848 2.25747L20.28 5.72257C20.4759 5.87908 20.7234 5.95569 20.9735 5.93697C21.2233 5.91852 21.4569 5.80601 21.6276 5.62245C21.798 5.43889 21.8928 5.19743 21.893 4.94684V1.96006H23.6401C23.6692 4.13498 23.7053 6.10653 23.7524 7.90093V7.94441C23.7592 8.17651 23.8697 8.3932 24.0532 8.53529C26.953 10.8043 29.2328 12.5225 30.8747 13.6605C31.0125 13.7584 31.2626 13.6605 31.4256 13.4358C31.5887 13.211 31.596 13.0118 31.4873 12.9066C30.0712 11.5726 28.0367 9.77372 25.3834 7.50954L25.3836 7.50968Z" fill="#1B1A1A"/>
</svg>
